<?xml version="1.0" encoding="utf-8"?>
<svg version="1.1" id="Layer_1" xmlns="http://www.w3.org/2000/svg" xmlns:xlink="http://www.w3.org/1999/xlink" x="0px" y="0px"
	 viewBox="0 0 880.8 58.93" style="enable-background:new 0 0 880.8 98.93;" xml:space="preserve">
<style type="text/css">
	.st0{fill:#FFFFFF;}
</style>
<g>
	<g>
		<g>
			<path class="st0" d="M47.32,56.29c0,0.21-0.21,0.32-0.63,0.32c-0.5,0-1.26-0.04-2.29-0.12c-1.03-0.08-1.79-0.12-2.29-0.12
				c-0.55,0-1.37,0.04-2.47,0.12c-1.09,0.08-1.92,0.12-2.47,0.12c-0.6,0-1.07-0.33-1.38-0.99c-0.84-1.79-3.24-7.33-7.19-16.62
				c-0.39-0.95-1.36-1.53-2.88-1.74c-0.34-0.03-1.54-0.04-3.59-0.04c-3.63,0-5.79,0.05-6.47,0.16c-0.55,0.08-0.83,0.75-0.83,2.01
				c0,1.84,0.08,4.6,0.25,8.27c0.17,3.67,0.26,6.42,0.26,8.23c0,0.55-0.26,0.83-0.79,0.83c-0.53,0-1.32-0.06-2.39-0.18
				c-1.07-0.12-1.87-0.18-2.43-0.18c-0.45,0-1.13,0.04-2.05,0.12c-0.92,0.08-1.61,0.12-2.05,0.12c-0.66,0-0.99-0.3-0.99-0.91
				c0-2.92,0.14-7.31,0.42-13.17c0.28-5.86,0.42-10.25,0.42-13.17c0-8.32-0.31-17.19-0.91-26.61L4.52,2.11
				C4.49,1.58,5.05,1.32,6.18,1.32c2.26,0,5.65-0.06,10.17-0.18c4.52-0.12,7.89-0.18,10.13-0.18c5.85,0,10.53,1.39,14.06,4.19
				c3.9,3.08,5.84,7.45,5.84,13.11c0,3.9-0.53,6.96-1.58,9.2c-1.11,2.37-3.16,4.62-6.16,6.75c-0.5,0.34-0.75,0.67-0.75,0.99
				c0,0.37,1.57,3.87,4.72,10.5C45.75,52.34,47.32,55.86,47.32,56.29z M36.5,20.47c0-4.77-1.37-7.95-4.11-9.56
				c-2.03-1.19-5.67-1.78-10.94-1.78c-4.27,0-6.44,0.34-6.52,1.03c-0.19,1.42-0.28,5.23-0.28,11.41v7.54
				c0.08,0.05,0.25,0.11,0.51,0.16c0.47,0.05,1.25,0.12,2.33,0.2c2.5,0.13,5.2,0.2,8.09,0.2C32.87,29.67,36.5,26.6,36.5,20.47z"
				/>
			<path class="st0" d="M90.09,48.66c0,0.42-0.1,1.03-0.31,1.82c-0.24,1-0.38,1.61-0.44,1.82c-0.08,0.95-0.26,2.33-0.55,4.15
				c-0.13,0.47-0.47,0.71-1.03,0.71c-0.26,0-0.76-0.05-1.5-0.16c-3.24-0.47-8.25-0.71-15.04-0.71c-1.92,0-4.82,0.05-8.69,0.16
				c-3.87,0.11-6.77,0.16-8.69,0.16c-0.87,0-1.3-0.38-1.3-1.14c0-2.95,0.16-7.38,0.49-13.29c0.33-5.91,0.49-10.34,0.49-13.29
				c0-3-0.16-8.59-0.47-16.78c-0.05-2.11-0.2-5.25-0.43-9.44l-0.04-0.55C52.55,1.5,52.89,1.2,53.6,1.2
				c1.84,0,4.61,0.05,8.29,0.16s6.45,0.16,8.29,0.16c1.76,0,4.4-0.05,7.92-0.16c3.51-0.11,6.15-0.16,7.92-0.16
				c1.24,0,1.91,0.38,2.01,1.15c0.55,3.47,0.83,5.63,0.83,6.48c0,0.61-0.29,0.91-0.87,0.91c-2.24,0-5.63-0.12-10.17-0.37
				c-4.54-0.25-7.96-0.38-10.25-0.38c-2.16,0-3.52,0.29-4.08,0.87c-0.57,0.58-0.85,2.01-0.85,4.3v5.88c0,1.61,0.04,2.54,0.12,2.8
				c0.24,0.82,0.92,1.22,2.05,1.22c0.32,0,0.76-0.01,1.34-0.04c0.61,0,1.05,0,1.34,0c5.16,0,9.79-0.09,13.9-0.28
				c1.61-0.05,3.5-0.18,5.69-0.39c0.55-0.05,0.83,0.18,0.83,0.71c0,0.84-0.1,2.13-0.3,3.87s-0.3,3.04-0.3,3.91
				c0,0.47-0.4,0.71-1.19,0.71c-0.31,0-1.49-0.09-3.51-0.28c-1.47-0.16-4.79-0.24-9.95-0.24c-4.34,0-7.09,0.05-8.25,0.16
				c-1.05,0.08-1.66,0.63-1.82,1.66c0.03-0.18,0.04,0.83,0.04,3.04v5.85c0,2.74,0.42,4.45,1.26,5.13
				c0.66,0.55,2.3,0.83,4.94,0.83l4.34-0.04c1.84,0,7.02-0.32,15.52-0.95l0.59-0.04C89.83,47.63,90.09,47.95,90.09,48.66z"/>

			<g>
				<path class="st0" d="M121.78,35.65l-5.82,0.04c-0.31,0-0.47,0.36-0.28,0.6l2.94,3.54c0.15,0.18,0.42,0.17,0.56,0l2.89-3.58
					C122.26,36.01,122.09,35.65,121.78,35.65z"/>
				<path class="st0" d="M115.96,26.11l-3.32-3.28c-0.22-0.22-0.6-0.06-0.6,0.25l0.02,3.3c0,0.19,0.16,0.35,0.35,0.35l3.3-0.02
					C116.03,26.7,116.18,26.33,115.96,26.11z"/>
				<path class="st0" d="M124.93,22.75l-3.28,3.32c-0.22,0.22-0.06,0.6,0.25,0.6l3.3-0.02c0.19,0,0.35-0.16,0.35-0.35l-0.02-3.3
					C125.52,22.68,125.15,22.52,124.93,22.75z"/>
			</g>
			<path class="st0" d="M142.33,16.36c-1.76-4.19-4.25-7.52-7.46-9.99c-4.47-3.45-11.28-5.17-20.41-5.17
				c-0.95,0-2.35,0.01-4.19,0.04c-1.85,0.03-3.21,0.04-4.11,0.04c-0.97,0-2.43-0.01-4.36-0.04c-1.93-0.03-3.39-0.04-4.36-0.04
				c-0.69,0-1.03,0.28-1.03,0.83c0,3.05,0.1,7.65,0.31,13.78c0.21,6.13,0.32,10.73,0.32,13.78c0,2.9-0.11,7.24-0.34,13.03
				c-0.22,5.79-0.34,10.12-0.34,12.99c0,0.66,0.33,0.99,0.99,0.99c1.24,0,3.1-0.05,5.59-0.16c2.49-0.11,4.35-0.16,5.59-0.16
				c1.37,0,3.43,0.05,6.18,0.16c2.75,0.11,4.81,0.16,6.18,0.16c7.16,0,13.03-2.94,17.61-8.81c4.21-5.4,6.32-11.79,6.32-19.19
				C144.82,24.34,143.99,20.26,142.33,16.36z M134.18,19.1l-4.09,7.62c-0.03,0.06-0.04,0.12-0.04,0.19l0.09,13.01
				c0,0.11-0.04,0.22-0.12,0.3l-8.68,8.8c-0.08,0.08-0.19,0.13-0.3,0.13l-4.14,0.03c-0.11,0-0.22-0.04-0.3-0.12l-8.8-8.68
				c-0.08-0.08-0.13-0.19-0.13-0.3l-0.09-13.01c0-0.07-0.02-0.13-0.04-0.19l-4.21-7.56c-0.14-0.28,0.06-0.62,0.38-0.62
				l3.55-0.92c0.16,0,0.31-0.09,0.38-0.24l3.94-8.02c0.16-0.32,0.6-0.32,0.76-0.01l4.05,7.96c0.07,0.14,0.22,0.23,0.38,0.23
				l3.97-0.03c0.16,0,0.31-0.09,0.38-0.24l3.94-8.02c0.16-0.32,0.6-0.32,0.76-0.01l4.05,7.96c0.07,0.14,0.22,0.23,0.38,0.23
				l3.55,0.87C134.11,18.49,134.32,18.82,134.18,19.1z"/>
		</g>
		<g>
			<path class="st0" d="M207.31,56.57c0,0.21-0.21,0.31-0.62,0.31c-0.49,0-1.24-0.04-2.25-0.12c-1.01-0.08-1.76-0.12-2.25-0.12
				c-0.54,0-1.35,0.04-2.42,0.12c-1.07,0.08-1.88,0.12-2.42,0.12c-0.59,0-1.05-0.32-1.35-0.97c-0.83-1.76-3.18-7.19-7.05-16.31
				c-0.39-0.93-1.33-1.5-2.83-1.7c-0.34-0.03-1.51-0.04-3.53-0.04c-3.56,0-5.68,0.05-6.35,0.16c-0.54,0.08-0.81,0.74-0.81,1.98
				c0,1.81,0.08,4.51,0.25,8.11c0.17,3.6,0.25,6.3,0.25,8.08c0,0.54-0.26,0.81-0.77,0.81c-0.52,0-1.3-0.06-2.34-0.17
				c-1.05-0.12-1.84-0.17-2.38-0.17c-0.44,0-1.11,0.04-2.01,0.12c-0.9,0.08-1.58,0.12-2.01,0.12c-0.64,0-0.97-0.3-0.97-0.89
				c0-2.87,0.14-7.17,0.41-12.92c0.27-5.75,0.41-10.05,0.41-12.92c0-8.16-0.3-16.86-0.89-26.11l-0.04-0.62
				c-0.02-0.52,0.52-0.77,1.63-0.77c2.22,0,5.54-0.06,9.97-0.17c4.43-0.12,7.74-0.17,9.94-0.17c5.73,0,10.33,1.37,13.79,4.11
				c3.82,3.02,5.73,7.31,5.73,12.86c0,3.82-0.52,6.83-1.55,9.03c-1.09,2.32-3.1,4.53-6.04,6.62c-0.49,0.33-0.73,0.66-0.73,0.97
				c0,0.36,1.54,3.8,4.63,10.3C205.76,52.7,207.31,56.16,207.31,56.57z M196.69,21.44c0-4.68-1.34-7.8-4.03-9.38
				c-1.99-1.16-5.57-1.74-10.73-1.74c-4.19,0-6.31,0.34-6.39,1.01c-0.18,1.4-0.27,5.13-0.27,11.2v7.4c0.08,0.05,0.24,0.1,0.5,0.15
				c0.47,0.05,1.22,0.12,2.29,0.19c2.45,0.13,5.1,0.19,7.94,0.19C193.13,30.46,196.69,27.45,196.69,21.44z"/>
			<path class="st0" d="M263.75,29.69c0,7.67-2.46,14.27-7.36,19.8c-5.11,5.73-11.47,8.6-19.06,8.6c-7.62,0-13.97-2.85-19.06-8.56
				c-4.91-5.5-7.36-12.11-7.36-19.83c0-7.64,2.48-14.24,7.44-19.8c5.11-5.76,11.44-8.64,18.98-8.64c7.57,0,13.91,2.88,19.02,8.64
				C261.29,15.42,263.75,22.02,263.75,29.69z M254.42,29.57c0-5.06-1.57-9.47-4.73-13.21c-3.31-3.98-7.45-5.96-12.44-5.96
				c-4.93,0-9.04,2.01-12.32,6.04c-3.1,3.77-4.65,8.19-4.65,13.25c0,5.04,1.55,9.44,4.65,13.21c3.28,4.03,7.39,6.04,12.32,6.04
				c5.01,0,9.17-2.01,12.48-6.04C252.86,39.13,254.42,34.69,254.42,29.57z"/>
			<path class="st0" d="M321.28,29.69c0,7.67-2.46,14.27-7.36,19.8c-5.11,5.73-11.47,8.6-19.06,8.6c-7.62,0-13.97-2.85-19.06-8.56
				c-4.91-5.5-7.36-12.11-7.36-19.83c0-7.64,2.48-14.24,7.44-19.8c5.11-5.76,11.44-8.64,18.98-8.64c7.57,0,13.91,2.88,19.02,8.64
				C318.81,15.42,321.28,22.02,321.28,29.69z M311.94,29.57c0-5.06-1.57-9.47-4.73-13.21c-3.31-3.98-7.45-5.96-12.44-5.96
				c-4.93,0-9.04,2.01-12.32,6.04c-3.1,3.77-4.65,8.19-4.65,13.25c0,5.04,1.55,9.44,4.65,13.21c3.28,4.03,7.39,6.04,12.32,6.04
				c5.01,0,9.17-2.01,12.48-6.04C310.38,39.13,311.94,34.69,311.94,29.57z"/>
			<path class="st0" d="M382.1,55.91c0,0.65-0.32,0.97-0.97,0.97c-0.47,0-1.17-0.04-2.11-0.12c-0.94-0.08-1.65-0.12-2.11-0.12
				c-0.46,0-1.18,0.04-2.13,0.12c-0.96,0.08-1.67,0.12-2.13,0.12c-0.64,0-0.97-0.43-0.97-1.28c0-3.28,0.1-8.2,0.31-14.76
				c0.21-6.56,0.31-11.48,0.31-14.76c0-0.49-0.1-0.74-0.31-0.74c-0.23,0-0.41,0.14-0.54,0.43c-1.32,2.82-4.43,10.33-9.34,22.55
				c-0.8,2.35-1.95,5.28-3.45,8.79c-0.18,0.33-1.11,0.5-2.79,0.5c-2.43,0-3.77-0.22-4.03-0.66c-0.88-2.09-2.13-5.02-3.76-8.79
				c-2.14-5.11-5.44-12.73-9.88-22.86c-0.08-0.18-0.24-0.36-0.5-0.54c-0.21,0.16-0.31,0.44-0.31,0.85c0,3.33,0.06,8.33,0.17,14.99
				c0.12,6.66,0.18,11.66,0.18,14.99c0,0.85-0.32,1.28-0.97,1.28c-0.44,0-1.11-0.04-2.01-0.12c-0.91-0.08-1.58-0.12-2.01-0.12
				c-0.47,0-1.16,0.04-2.07,0.12c-0.92,0.08-1.61,0.12-2.07,0.12c-0.64,0-0.97-0.25-0.97-0.74c0-2.87,0.14-7.16,0.41-12.88
				c0.27-5.72,0.41-10.01,0.41-12.88c0-2.97-0.14-7.43-0.41-13.38s-0.41-10.41-0.41-13.39c0-0.49,0.3-0.77,0.89-0.85
				c3.51-0.46,6.16-0.7,7.94-0.7c0.26,0,0.62,0.53,1.09,1.59c6.25,13.74,11.62,26.01,16.12,36.8c1.06,2.53,1.69,3.8,1.9,3.8
				c0.26,0,0.81-1.03,1.67-3.1c3.51-8.37,8.38-20.79,14.6-37.27c0.39-1.01,0.81-1.51,1.28-1.51c0.88,0,2.2,0.05,3.97,0.15
				c1.77,0.1,3.09,0.16,3.97,0.16c0.64,0,0.97,0.31,0.97,0.93c0,2.97-0.1,7.43-0.29,13.39c-0.19,5.95-0.29,10.41-0.29,13.38
				c0,2.84,0.11,7.1,0.33,12.78C381.99,48.85,382.1,53.1,382.1,55.91z"/>
		</g>
	</g>
	<g>
		<path class="st0" d="M444.66,49.42c0,0.42-0.11,1.03-0.32,1.83c-0.24,1.01-0.38,1.61-0.44,1.82c-0.08,0.95-0.26,2.34-0.56,4.17
			c-0.13,0.48-0.48,0.71-1.03,0.71c-0.26,0-0.77-0.05-1.51-0.16c-3.25-0.48-8.29-0.71-15.11-0.71c-1.93,0-4.84,0.05-8.73,0.16
			c-3.89,0.11-6.8,0.16-8.73,0.16c-0.87,0-1.31-0.38-1.31-1.15c0-2.96,0.16-7.41,0.5-13.35c0.33-5.94,0.5-10.39,0.5-13.35
			c0-3.01-0.16-8.63-0.48-16.86c-0.05-2.12-0.2-5.28-0.44-9.48l-0.04-0.56c-0.03-0.61,0.32-0.91,1.03-0.91
			c1.85,0,4.63,0.05,8.33,0.16c3.7,0.11,6.48,0.16,8.33,0.16c1.77,0,4.42-0.05,7.95-0.16c3.53-0.11,6.18-0.16,7.95-0.16
			c1.24,0,1.92,0.38,2.02,1.15c0.56,3.49,0.83,5.66,0.83,6.51c0,0.61-0.29,0.91-0.87,0.91c-2.25,0-5.65-0.13-10.21-0.38
			c-4.56-0.25-7.99-0.38-10.29-0.38c-2.17,0-3.54,0.29-4.11,0.87c-0.57,0.58-0.85,2.02-0.85,4.32v5.91c0,1.61,0.04,2.55,0.12,2.82
			c0.24,0.82,0.93,1.23,2.06,1.23c0.32,0,0.77-0.01,1.35-0.04c0.61,0,1.06,0,1.35,0c5.18,0,9.84-0.09,13.96-0.28
			c1.61-0.05,3.52-0.18,5.71-0.4c0.56-0.05,0.83,0.19,0.83,0.71c0,0.85-0.1,2.14-0.3,3.89c-0.2,1.75-0.3,3.05-0.3,3.93
			c0,0.48-0.4,0.71-1.19,0.71c-0.32,0-1.49-0.09-3.53-0.28c-1.48-0.16-4.81-0.24-10-0.24c-4.36,0-7.13,0.05-8.29,0.16
			c-1.06,0.08-1.67,0.63-1.82,1.67c0.03-0.18,0.04,0.83,0.04,3.05v5.87c0,2.75,0.42,4.47,1.27,5.16c0.66,0.56,2.31,0.83,4.96,0.83
			l4.36-0.04c1.85,0,7.05-0.32,15.59-0.95l0.6-0.04C444.4,48.37,444.66,48.7,444.66,49.42z"/>
		<path class="st0" d="M494.44,56.91c0,0.32-0.29,0.48-0.87,0.48l-6.39,0.04c-0.32,0-0.49-0.01-0.52-0.04
			c-0.4-0.13-2.68-3.42-6.84-9.88c-4.16-6.45-6.31-9.69-6.45-9.72c-0.48,0.34-2.82,3.74-7.02,10.19c-4.05,6.27-6.27,9.4-6.66,9.4
			h-6.58c-0.61,0-0.91-0.21-0.91-0.63v-5.71c0-0.5,2.49-4.05,7.46-10.65c4.97-6.6,7.46-10.16,7.46-10.69c0-0.58-2.47-4.2-7.42-10.87
			c-4.95-6.66-7.42-10.19-7.42-10.59V2.13c0-0.37,0.36-0.55,1.07-0.55c0.74,0,1.85,0.03,3.33,0.08c1.48,0.05,2.59,0.08,3.33,0.08
			c0.13,0,0.62,0.61,1.47,1.82c2.49,3.91,6.24,9.76,11.27,17.53c0.13,0.18,0.36,0.38,0.67,0.59c0.37-0.18,2.66-3.58,6.86-10.19
			c4.15-6.51,6.41-9.76,6.78-9.76h6.27c0.69,0,1.03,0.18,1.03,0.55V8.4c0,0.66-2.47,4.27-7.4,10.83c-4.93,6.56-7.4,10.01-7.4,10.35
			c0,0.42,2.48,4.01,7.44,10.77c4.96,6.76,7.44,10.37,7.44,10.85V56.91z"/>
		<path class="st0" d="M548.82,22.28c0,6.22-1.68,11.19-5.04,14.91c-3.46,3.84-8.26,5.75-14.4,5.75c-1.51,0-3.79-0.06-6.84-0.18
			c-3.05-0.12-5.35-0.18-6.88-0.18c-0.85,0-1.27,0.54-1.27,1.63c0,1.4,0.09,3.5,0.26,6.31c0.17,2.8,0.26,4.91,0.26,6.31
			c0,0.45-0.25,0.67-0.75,0.67c-0.56,0-1.4-0.06-2.52-0.18c-1.12-0.12-1.96-0.18-2.52-0.18c-0.48,0-1.18,0.04-2.1,0.12
			c-0.93,0.08-1.61,0.12-2.06,0.12c-0.66,0-0.99-0.41-0.99-1.23c0-2.88,0.12-7.23,0.38-13.05c0.25-5.82,0.38-10.18,0.38-13.09
			c0-8.25-0.3-17.11-0.91-26.58l-0.04-0.59c-0.03-0.58,0.32-0.87,1.03-0.87c1.43,0,3.58,0.01,6.45,0.04
			c2.87,0.03,5.03,0.04,6.49,0.04c1.24,0,3.11-0.05,5.59-0.16c2.49-0.11,4.35-0.16,5.59-0.16c5.84,0,10.64,1.98,14.4,5.95
			C546.98,11.57,548.82,16.44,548.82,22.28z M538.82,22.88c0-3.97-1.07-7.14-3.21-9.52c-2.22-2.49-5.29-3.73-9.2-3.73
			c-1.22,0-3.39,0.11-6.51,0.32c-3.57,0.21-5.41,0.42-5.51,0.63c-0.19,0.32-0.28,4.87-0.28,13.65c0,1.11,0.03,2.78,0.1,5
			c0.07,2.22,0.1,3.89,0.1,5c0,0.24,0.29,0.42,0.87,0.56c1.45,0.29,5.49,0.44,12.1,0.44c3.7,0,6.58-1.15,8.65-3.45
			C537.86,29.57,538.82,26.61,538.82,22.88z"/>
		<path class="st0" d="M595.38,49.42c0,0.42-0.11,1.03-0.32,1.83c-0.24,1.01-0.38,1.61-0.44,1.82c-0.08,0.95-0.26,2.34-0.56,4.17
			c-0.13,0.48-0.48,0.71-1.03,0.71c-0.26,0-0.77-0.05-1.51-0.16c-3.25-0.48-8.29-0.71-15.11-0.71c-1.93,0-4.84,0.05-8.73,0.16
			c-3.89,0.11-6.8,0.16-8.73,0.16c-0.87,0-1.31-0.38-1.31-1.15c0-2.96,0.16-7.41,0.5-13.35c0.33-5.94,0.5-10.39,0.5-13.35
			c0-3.01-0.16-8.63-0.48-16.86c-0.05-2.12-0.2-5.28-0.44-9.48l-0.04-0.56c-0.03-0.61,0.32-0.91,1.03-0.91
			c1.85,0,4.63,0.05,8.33,0.16c3.7,0.11,6.48,0.16,8.33,0.16c1.77,0,4.42-0.05,7.95-0.16c3.53-0.11,6.18-0.16,7.95-0.16
			c1.24,0,1.92,0.38,2.02,1.15c0.56,3.49,0.83,5.66,0.83,6.51c0,0.61-0.29,0.91-0.87,0.91c-2.25,0-5.65-0.13-10.21-0.38
			c-4.56-0.25-7.99-0.38-10.29-0.38c-2.17,0-3.54,0.29-4.11,0.87c-0.57,0.58-0.85,2.02-0.85,4.32v5.91c0,1.61,0.04,2.55,0.12,2.82
			c0.24,0.82,0.93,1.23,2.06,1.23c0.32,0,0.77-0.01,1.35-0.04c0.61,0,1.06,0,1.35,0c5.18,0,9.84-0.09,13.96-0.28
			c1.61-0.05,3.52-0.18,5.71-0.4c0.56-0.05,0.83,0.19,0.83,0.71c0,0.85-0.1,2.14-0.3,3.89c-0.2,1.75-0.3,3.05-0.3,3.93
			c0,0.48-0.4,0.71-1.19,0.71c-0.32,0-1.49-0.09-3.53-0.28c-1.48-0.16-4.81-0.24-10-0.24c-4.36,0-7.13,0.05-8.29,0.16
			c-1.06,0.08-1.67,0.63-1.82,1.67c0.03-0.18,0.04,0.83,0.04,3.05v5.87c0,2.75,0.42,4.47,1.27,5.16c0.66,0.56,2.31,0.83,4.96,0.83
			l4.36-0.04c1.85,0,7.05-0.32,15.59-0.95l0.59-0.04C595.12,48.37,595.38,48.7,595.38,49.42z"/>
		<path class="st0" d="M647.66,57.07c0,0.21-0.21,0.32-0.63,0.32c-0.5,0-1.27-0.04-2.3-0.12c-1.03-0.08-1.8-0.12-2.3-0.12
			c-0.56,0-1.38,0.04-2.48,0.12c-1.1,0.08-1.92,0.12-2.48,0.12c-0.61,0-1.07-0.33-1.39-0.99c-0.85-1.8-3.25-7.36-7.22-16.7
			c-0.4-0.95-1.36-1.53-2.9-1.75c-0.34-0.03-1.55-0.04-3.61-0.04c-3.65,0-5.82,0.05-6.51,0.16c-0.56,0.08-0.83,0.75-0.83,2.02
			c0,1.85,0.09,4.62,0.26,8.31c0.17,3.69,0.26,6.45,0.26,8.27c0,0.56-0.26,0.83-0.79,0.83c-0.53,0-1.33-0.06-2.4-0.18
			c-1.07-0.12-1.88-0.18-2.44-0.18c-0.45,0-1.14,0.04-2.06,0.12c-0.93,0.08-1.61,0.12-2.06,0.12c-0.66,0-0.99-0.3-0.99-0.91
			c0-2.94,0.14-7.34,0.42-13.23c0.28-5.88,0.42-10.29,0.42-13.23c0-8.36-0.3-17.27-0.91-26.74l-0.04-0.63
			c-0.03-0.53,0.53-0.79,1.67-0.79c2.27,0,5.68-0.06,10.21-0.18c4.53-0.12,7.93-0.18,10.17-0.18c5.87,0,10.58,1.4,14.12,4.21
			c3.91,3.09,5.87,7.48,5.87,13.17c0,3.91-0.53,6.99-1.59,9.24c-1.11,2.38-3.17,4.64-6.19,6.78c-0.5,0.34-0.75,0.67-0.75,0.99
			c0,0.37,1.58,3.89,4.74,10.55S647.66,56.65,647.66,57.07z M636.79,21.09c0-4.79-1.38-7.99-4.13-9.6
			c-2.04-1.19-5.7-1.78-10.99-1.78c-4.28,0-6.47,0.34-6.55,1.03c-0.19,1.43-0.28,5.25-0.28,11.46v7.58
			c0.08,0.05,0.25,0.11,0.52,0.16c0.48,0.05,1.26,0.12,2.34,0.2c2.51,0.13,5.22,0.2,8.13,0.2
			C633.14,30.34,636.79,27.26,636.79,21.09z"/>
		<path class="st0" d="M667.22,56.56c0,0.56-0.38,0.83-1.15,0.83c-0.48,0-1.2-0.04-2.18-0.12c-0.98-0.08-1.71-0.12-2.18-0.12
			c-0.5,0-1.24,0.04-2.22,0.12c-0.98,0.08-1.71,0.12-2.18,0.12c-0.66,0-0.99-0.3-0.99-0.91c0-3.01,0.14-7.56,0.42-13.63
			c0.28-6.07,0.42-10.62,0.42-13.66c0-2.94-0.14-7.34-0.42-13.23c-0.28-5.88-0.42-10.29-0.42-13.23c0-0.66,0.3-0.99,0.91-0.99
			c0.5,0,1.27,0.04,2.3,0.12c1.03,0.08,1.81,0.12,2.34,0.12c0.48,0,1.19-0.04,2.14-0.12s1.67-0.12,2.14-0.12
			c0.69,0,1.03,0.26,1.03,0.79c0,2.96-0.11,7.4-0.32,13.33c-0.21,5.92-0.32,10.37-0.32,13.33c0,3.04,0.11,7.6,0.34,13.68
			C667.1,48.95,667.22,53.52,667.22,56.56z"/>
		<path class="st0" d="M716.36,49.42c0,0.42-0.11,1.03-0.32,1.83c-0.24,1.01-0.38,1.61-0.44,1.82c-0.08,0.95-0.27,2.34-0.56,4.17
			c-0.13,0.48-0.48,0.71-1.03,0.71c-0.27,0-0.77-0.05-1.51-0.16c-3.25-0.48-8.29-0.71-15.11-0.71c-1.93,0-4.84,0.05-8.73,0.16
			c-3.89,0.11-6.8,0.16-8.73,0.16c-0.87,0-1.31-0.38-1.31-1.15c0-2.96,0.16-7.41,0.5-13.35c0.33-5.94,0.5-10.39,0.5-13.35
			c0-3.01-0.16-8.63-0.48-16.86c-0.05-2.12-0.2-5.28-0.44-9.48l-0.04-0.56c-0.03-0.61,0.32-0.91,1.03-0.91
			c1.85,0,4.63,0.05,8.33,0.16c3.7,0.11,6.48,0.16,8.33,0.16c1.77,0,4.42-0.05,7.95-0.16c3.53-0.11,6.18-0.16,7.95-0.16
			c1.24,0,1.92,0.38,2.02,1.15c0.56,3.49,0.83,5.66,0.83,6.51c0,0.61-0.29,0.91-0.87,0.91c-2.25,0-5.65-0.13-10.21-0.38
			c-4.56-0.25-7.99-0.38-10.29-0.38c-2.17,0-3.54,0.29-4.11,0.87c-0.57,0.58-0.85,2.02-0.85,4.32v5.91c0,1.61,0.04,2.55,0.12,2.82
			c0.24,0.82,0.93,1.23,2.06,1.23c0.32,0,0.77-0.01,1.35-0.04c0.61,0,1.06,0,1.35,0c5.18,0,9.84-0.09,13.96-0.28
			c1.61-0.05,3.52-0.18,5.71-0.4c0.56-0.05,0.83,0.19,0.83,0.71c0,0.85-0.1,2.14-0.3,3.89c-0.2,1.75-0.3,3.05-0.3,3.93
			c0,0.48-0.4,0.71-1.19,0.71c-0.32,0-1.49-0.09-3.53-0.28c-1.48-0.16-4.81-0.24-10-0.24c-4.36,0-7.13,0.05-8.29,0.16
			c-1.06,0.08-1.67,0.63-1.83,1.67c0.03-0.18,0.04,0.83,0.04,3.05v5.87c0,2.75,0.42,4.47,1.27,5.16c0.66,0.56,2.31,0.83,4.96,0.83
			l4.36-0.04c1.85,0,7.05-0.32,15.59-0.95l0.59-0.04C716.1,48.37,716.36,48.7,716.36,49.42z"/>
		<path class="st0" d="M775.66,2.61c0,3.04-0.11,7.63-0.32,13.76c-0.21,6.14-0.32,10.74-0.32,13.8c0,2.88,0.03,7.2,0.08,12.95
			c0.05,5.75,0.08,10.07,0.08,12.95c0,0.87-0.33,1.31-0.99,1.31c-0.4,0-0.99-0.04-1.79-0.12c-0.79-0.08-1.39-0.12-1.79-0.12
			c-0.42,0-1.07,0.04-1.94,0.12c-0.87,0.08-1.52,0.12-1.94,0.12c-0.48,0-1.05-0.44-1.71-1.31c-5.71-7.69-14.37-19.17-25.98-34.43
			c-1.8-2.33-2.84-3.62-3.13-3.89c-0.27,0-0.4,0.54-0.4,1.63c0,4.07,0.07,10.19,0.2,18.35s0.2,14.27,0.2,18.35
			c0,0.87-0.27,1.31-0.79,1.31c-0.45,0-1.14-0.04-2.06-0.12c-0.93-0.08-1.61-0.12-2.06-0.12c-0.48,0-1.18,0.04-2.12,0.12
			c-0.94,0.08-1.65,0.12-2.12,0.12c-0.66,0-0.99-0.26-0.99-0.79c0-2.91,0.14-7.29,0.42-13.15c0.28-5.86,0.42-10.25,0.42-13.19
			c0-3.2-0.12-8.96-0.36-17.29c-0.05-2.17-0.19-5.42-0.4-9.76l-0.04-0.52c-0.03-0.4,0.29-0.61,0.95-0.63
			c1.72-0.03,3.07-0.08,4.04-0.16c0.37-0.03,1.07-0.13,2.1-0.32c0.87-0.16,1.56-0.24,2.06-0.24c0.24,0,0.65,0.38,1.23,1.15
			c6.08,8.36,15.39,20.79,27.93,37.29c0.56,0.69,1.07,1.28,1.55,1.79c0.18-1.11,0.28-3.65,0.28-7.62c0-3.44-0.13-8.59-0.38-15.47
			c-0.25-6.87-0.38-12.02-0.38-15.43c0-0.87,0.26-1.31,0.79-1.31c0.48,0,1.2,0.04,2.16,0.12c0.97,0.08,1.68,0.12,2.16,0.12
			c0.5,0,1.26-0.04,2.26-0.12c1-0.08,1.76-0.12,2.26-0.12C775.38,1.74,775.66,2.03,775.66,2.61z"/>
		<path class="st0" d="M831.07,48.23c0,0.32-0.25,0.77-0.75,1.35c-5.16,5.98-11.54,8.97-19.16,8.97c-7.93,0-14.28-2.9-19.04-8.69
			c-4.44-5.39-6.66-12.14-6.66-20.23s2.26-14.86,6.78-20.31c4.81-5.87,11.17-8.81,19.08-8.81c8.01,0,14.21,2.71,18.6,8.13
			c0.42,0.56,0.63,1.02,0.63,1.39c0,0.45-0.7,1.78-2.1,3.99c-1.4,2.21-2.25,3.31-2.54,3.31c-0.34,0-1.15-0.65-2.42-1.94
			c-1.56-1.59-3.03-2.78-4.4-3.57c-2.28-1.29-4.79-1.94-7.54-1.94c-5.24,0-9.31,2-12.22,5.99c-2.59,3.57-3.89,8.07-3.89,13.49
			s1.28,9.96,3.85,13.61c2.91,4.1,6.97,6.15,12.18,6.15c2.59,0,5.09-0.65,7.5-1.94c1.59-0.85,3.2-2.05,4.84-3.61
			c1.37-1.29,2.13-1.94,2.26-1.94c0.16,0,1.03,1.05,2.62,3.15C830.28,46.86,831.07,48.02,831.07,48.23z"/>
		<path class="st0" d="M876.29,49.42c0,0.42-0.11,1.03-0.32,1.83c-0.24,1.01-0.38,1.61-0.44,1.82c-0.08,0.95-0.27,2.34-0.56,4.17
			c-0.13,0.48-0.48,0.71-1.03,0.71c-0.27,0-0.77-0.05-1.51-0.16c-3.25-0.48-8.29-0.71-15.11-0.71c-1.93,0-4.84,0.05-8.73,0.16
			c-3.89,0.11-6.8,0.16-8.73,0.16c-0.87,0-1.31-0.38-1.31-1.15c0-2.96,0.16-7.41,0.5-13.35c0.33-5.94,0.5-10.39,0.5-13.35
			c0-3.01-0.16-8.63-0.48-16.86c-0.05-2.12-0.2-5.28-0.44-9.48l-0.04-0.56c-0.03-0.61,0.32-0.91,1.03-0.91
			c1.85,0,4.63,0.05,8.33,0.16c3.7,0.11,6.48,0.16,8.33,0.16c1.77,0,4.42-0.05,7.95-0.16c3.53-0.11,6.18-0.16,7.95-0.16
			c1.24,0,1.92,0.38,2.02,1.15c0.56,3.49,0.83,5.66,0.83,6.51c0,0.61-0.29,0.91-0.87,0.91c-2.25,0-5.65-0.13-10.21-0.38
			c-4.56-0.25-7.99-0.38-10.29-0.38c-2.17,0-3.54,0.29-4.11,0.87c-0.57,0.58-0.85,2.02-0.85,4.32v5.91c0,1.61,0.04,2.55,0.12,2.82
			c0.24,0.82,0.93,1.23,2.06,1.23c0.32,0,0.77-0.01,1.35-0.04c0.61,0,1.06,0,1.35,0c5.18,0,9.84-0.09,13.96-0.28
			c1.61-0.05,3.52-0.18,5.71-0.4c0.56-0.05,0.83,0.19,0.83,0.71c0,0.85-0.1,2.14-0.3,3.89c-0.2,1.75-0.3,3.05-0.3,3.93
			c0,0.48-0.4,0.71-1.19,0.71c-0.32,0-1.49-0.09-3.53-0.28c-1.48-0.16-4.81-0.24-10-0.24c-4.36,0-7.13,0.05-8.29,0.16
			c-1.06,0.08-1.67,0.63-1.83,1.67c0.03-0.18,0.04,0.83,0.04,3.05v5.87c0,2.75,0.42,4.47,1.27,5.16c0.66,0.56,2.31,0.83,4.96,0.83
			l4.36-0.04c1.85,0,7.05-0.32,15.59-0.95l0.59-0.04C876.02,48.37,876.29,48.7,876.29,49.42z"/>
	</g>
</g>
</svg>
